<svg width="21" height="21" viewBox="0 0 21 21" fill="none" xmlns="http://www.w3.org/2000/svg">
<path d="M10.1123 0.505859C15.4181 0.505859 19.7187 4.80652 19.7188 10.1123C19.7188 15.4181 15.4181 19.7188 10.1123 19.7188C4.80652 19.7187 0.505859 15.4181 0.505859 10.1123C0.505889 4.80654 4.80654 0.505889 10.1123 0.505859ZM11.3916 1.61328C9.75596 1.36711 8.0838 1.59788 6.57617 2.27832C5.06857 2.95877 3.78903 4.0598 2.8916 5.44922C1.99415 6.83875 1.51676 8.45816 1.5166 10.1123C1.51641 12.2058 2.28047 14.2276 3.66504 15.7979C5.04984 17.3682 6.96078 18.3799 9.03809 18.6416L9.60645 18.7129V11.6289H7.0791C6.945 11.6289 6.81552 11.5763 6.7207 11.4814C6.62601 11.3867 6.57336 11.2579 6.57324 11.124C6.57324 10.9899 6.62588 10.8604 6.7207 10.7656C6.81552 10.6708 6.94501 10.6182 7.0791 10.6182H9.60645V8.08984C9.60646 7.41937 9.87356 6.77683 10.3477 6.30273C10.8217 5.82864 11.4643 5.56154 12.1348 5.56152H12.6406C12.7747 5.56157 12.9033 5.61518 12.998 5.70996C13.0928 5.80477 13.1465 5.93333 13.1465 6.06738C13.1465 6.20143 13.0928 6.32999 12.998 6.4248C12.9033 6.51959 12.7747 6.5732 12.6406 6.57324H12.1348C11.7325 6.57326 11.3469 6.73313 11.0625 7.01758C10.7781 7.30203 10.6182 7.68757 10.6182 8.08984V10.6182H13.1465C13.2804 10.6183 13.4092 10.6709 13.5039 10.7656C13.5987 10.8604 13.6514 10.9899 13.6514 11.124C13.6513 11.258 13.5986 11.3867 13.5039 11.4814C13.4092 11.5762 13.2804 11.6288 13.1465 11.6289H10.6182V18.7129L11.1865 18.6416C12.8277 18.4348 14.3751 17.7583 15.6416 16.6943C16.908 15.6304 17.8404 14.2233 18.3271 12.6426C18.8139 11.0618 18.8343 9.37425 18.3857 7.78223C17.9371 6.19008 17.0384 4.76117 15.7979 3.66699C14.5573 2.57282 13.0273 1.85951 11.3916 1.61328Z" fill="#C8EB00" stroke="#C8EB00" stroke-width="1.01124"/>
</svg>
