<svg width="21" height="21" viewBox="0 0 21 21" fill="none" xmlns="http://www.w3.org/2000/svg">
<path d="M5.86523 0.505859H14.3594C17.3161 0.505859 19.7188 2.90852 19.7188 5.86523V14.3594C19.7187 15.7808 19.1545 17.1443 18.1494 18.1494C17.1443 19.1545 15.7808 19.7188 14.3594 19.7188H5.86523C2.90852 19.7188 0.505859 17.3161 0.505859 14.3594V5.86523C0.505859 4.44379 1.07008 3.08031 2.0752 2.0752C3.08031 1.07008 4.44379 0.505859 5.86523 0.505859ZM5.66309 1.5166C4.56348 1.5166 3.50898 1.95391 2.73145 2.73145C1.95391 3.50898 1.5166 4.56348 1.5166 5.66309V14.5615C1.5166 16.8531 3.37148 18.708 5.66309 18.708H14.5615C15.6611 18.708 16.7156 18.2707 17.4932 17.4932C18.2707 16.7156 18.708 15.6611 18.708 14.5615V5.66309C18.708 3.37148 16.8531 1.5166 14.5615 1.5166H5.66309ZM10.1123 5.56152C11.3192 5.56152 12.4767 6.04117 13.3301 6.89453C14.1835 7.74791 14.6631 8.90544 14.6631 10.1123C14.6631 11.3192 14.1835 12.4767 13.3301 13.3301C12.4767 14.1835 11.3192 14.6631 10.1123 14.6631C8.90544 14.6631 7.74791 14.1835 6.89453 13.3301C6.04117 12.4767 5.56152 11.3192 5.56152 10.1123C5.56154 8.90544 6.04115 7.74791 6.89453 6.89453C7.74791 6.04115 8.90544 5.56154 10.1123 5.56152ZM10.1123 6.57324C9.17364 6.57326 8.27311 6.94564 7.60938 7.60938C6.94564 8.27311 6.57326 9.17364 6.57324 10.1123C6.57324 11.051 6.94566 11.9515 7.60938 12.6152C8.27311 13.279 9.17364 13.6514 10.1123 13.6514C11.051 13.6514 11.9515 13.279 12.6152 12.6152C13.279 11.9515 13.6514 11.051 13.6514 10.1123C13.6514 9.17364 13.279 8.27311 12.6152 7.60938C11.9515 6.94566 11.051 6.57324 10.1123 6.57324ZM15.4209 4.04492C15.622 4.04492 15.8158 4.1244 15.958 4.2666C16.1002 4.40883 16.1797 4.60256 16.1797 4.80371C16.1796 5.00469 16.1001 5.1977 15.958 5.33984C15.8158 5.48208 15.622 5.56152 15.4209 5.56152C15.2199 5.5614 15.0269 5.48197 14.8848 5.33984C14.7426 5.1977 14.6632 5.00471 14.6631 4.80371C14.6631 4.60256 14.7425 4.40883 14.8848 4.2666C15.0269 4.12453 15.22 4.04504 15.4209 4.04492Z" fill="#C8EB00" stroke="#C8EB00" stroke-width="1.01124"/>
</svg>
