<svg width="18" height="14" viewBox="0 0 18 14" fill="none" xmlns="http://www.w3.org/2000/svg">
<path fill-rule="evenodd" clip-rule="evenodd" d="M16.5679 1.86624L9.57168 7.66C9.37287 7.82471 9.1228 7.91485 8.86463 7.91485C8.60646 7.91485 8.35639 7.82471 8.15759 7.66L1.16474 1.86624C1.12722 1.97918 1.10813 2.09743 1.10822 2.21644V11.0822C1.10822 11.3761 1.22498 11.658 1.43281 11.8658C1.64064 12.0736 1.92252 12.1904 2.21644 12.1904H15.515C15.809 12.1904 16.0908 12.0736 16.2987 11.8658C16.5065 11.658 16.6233 11.3761 16.6233 11.0822V2.21644C16.6237 2.09749 16.605 1.97924 16.5679 1.86624ZM2.21644 0H15.515C16.1029 0 16.6666 0.233517 17.0823 0.649179C17.498 1.06484 17.7315 1.6286 17.7315 2.21644V11.0822C17.7315 11.67 17.498 12.2338 17.0823 12.6494C16.6666 13.0651 16.1029 13.2986 15.515 13.2986H2.21644C1.6286 13.2986 1.06484 13.0651 0.649179 12.6494C0.233517 12.2338 0 11.67 0 11.0822V2.21644C0 1.6286 0.233517 1.06484 0.649179 0.649179C1.06484 0.233517 1.6286 0 2.21644 0ZM1.98371 1.10822L8.16313 6.20934C8.36104 6.37281 8.60956 6.46251 8.86625 6.46311C9.12294 6.46372 9.37189 6.3752 9.57057 6.21267L15.812 1.10822H1.98371Z" fill="#2B2B2B"/>
</svg>
