<svg width="22" height="18" viewBox="0 0 22 18" fill="none" xmlns="http://www.w3.org/2000/svg">
<path fill-rule="evenodd" clip-rule="evenodd" d="M13.9284 0.0816671C14.4421 -0.00631042 15.0175 -0.0356361 15.5595 0.0563864C16.525 0.219468 17.4195 0.66781 18.128 1.34369C18.5891 1.3538 19.0432 1.26279 19.4446 1.13335C19.8325 1.0065 20.205 0.836559 20.555 0.626723L20.5641 0.620656C20.7097 0.523633 20.8844 0.479947 21.0585 0.497003C21.2327 0.514059 21.3956 0.590808 21.5196 0.714241C21.6436 0.837674 21.7212 1.0002 21.7391 1.17426C21.757 1.34833 21.7141 1.52322 21.6178 1.66931C21.4085 1.98785 21.1162 2.55616 20.7896 3.19324L20.6329 3.49762C20.4458 3.86167 20.2536 4.22976 20.0746 4.54526C19.9624 4.74346 19.8421 4.9447 19.7207 5.11863V5.39571C19.7332 7.05276 19.4154 8.6957 18.7861 10.2286C18.1567 11.7616 17.2284 13.1538 16.0552 14.3241C14.882 15.4944 13.4874 16.4193 11.9529 17.0448C10.4184 17.6703 8.7747 17.984 7.11768 17.9674C4.71628 17.9707 2.36525 17.2788 0.348468 15.9753C0.203687 15.8822 0.0948446 15.7427 0.039818 15.5797C-0.0152086 15.4166 -0.0131476 15.2397 0.0456623 15.078C0.104472 14.9163 0.216535 14.7793 0.363443 14.6897C0.510352 14.6001 0.683372 14.5631 0.854086 14.5848C1.15746 14.6219 1.46251 14.6404 1.76925 14.6404C2.86203 14.6364 3.94104 14.3964 4.9324 13.9366C4.3114 13.6541 3.75602 13.2454 3.30162 12.7365C2.84722 12.2276 2.50375 11.6297 2.29307 10.9808C2.25293 10.8566 2.24552 10.7241 2.27156 10.5962C2.2976 10.4683 2.35622 10.3493 2.44173 10.2507L2.45184 10.2405C1.93875 9.78325 1.5275 9.22322 1.24476 8.59677C0.962016 7.97031 0.814101 7.29143 0.810603 6.60414V6.55054C0.810529 6.38405 0.865244 6.22215 0.966308 6.08984C1.06737 5.95752 1.20917 5.86214 1.36982 5.81841C1.02754 5.13546 0.849881 4.38188 0.851052 3.61796C0.850478 2.7515 1.07712 1.90004 1.50836 1.14852C1.56962 1.04184 1.65592 0.951662 1.75981 0.885768C1.8637 0.819874 1.98206 0.780242 2.10468 0.770289C2.2273 0.760336 2.3505 0.780361 2.46366 0.828638C2.57681 0.876914 2.67653 0.951993 2.7542 1.0474C4.52371 3.22575 7.05752 4.64708 9.83892 5.02155C9.81476 4.11163 10.0443 3.21294 10.5019 2.42605C10.9594 1.63917 11.6269 0.995139 12.4297 0.566049C12.8362 0.349645 13.3742 0.176723 13.9284 0.0816671ZM2.52161 7.71448C2.71798 8.26713 3.05447 8.75934 3.49815 9.14293C3.94183 9.52652 4.4775 9.78835 5.05274 9.90279C5.21847 9.93581 5.36842 10.0232 5.47881 10.1512C5.5892 10.2791 5.65369 10.4403 5.66205 10.6091C5.67041 10.7778 5.62217 10.9446 5.52498 11.0828C5.42778 11.2211 5.2872 11.3229 5.12555 11.3721C4.84982 11.4557 4.56869 11.514 4.28218 11.5471C4.59297 11.9477 4.98951 12.2738 5.44271 12.5012C5.89592 12.7287 6.39429 12.8519 6.90128 12.8617C7.05767 12.8646 7.20933 12.9158 7.33547 13.0083C7.46161 13.1008 7.55607 13.2301 7.6059 13.3784C7.65573 13.5266 7.65849 13.6867 7.61382 13.8366C7.56914 13.9865 7.4792 14.1189 7.35633 14.2157C6.30133 15.0445 5.07614 15.6298 3.76847 15.9298C4.85129 16.2767 5.98165 16.4524 7.11869 16.4505H7.12779C8.584 16.4658 10.0286 16.1907 11.3773 15.6414C12.726 15.092 13.9518 14.2795 14.9829 13.2511C16.0141 12.2228 16.83 10.9993 17.383 9.65212C17.936 8.30493 18.2151 6.86105 18.2039 5.40481V4.8638C18.2037 4.67965 18.2706 4.50173 18.392 4.36324C18.4627 4.28335 18.5841 4.09931 18.756 3.79695C18.9178 3.51178 19.0978 3.16796 19.2849 2.80493L19.3182 2.73818C18.79 2.85692 18.2461 2.89004 17.7073 2.83627C17.5252 2.81643 17.3563 2.7313 17.2321 2.59661C16.7235 2.04517 16.0463 1.67811 15.3067 1.55302C14.9337 1.49988 14.5544 1.50842 14.1842 1.5783C13.8233 1.6344 13.4728 1.74451 13.1446 1.90493C12.483 2.25846 11.9573 2.82163 11.6502 3.50611C11.3431 4.19058 11.2719 4.95764 11.4478 5.68695C11.4755 5.80163 11.476 5.92119 11.4494 6.03611C11.4227 6.15104 11.3697 6.25817 11.2944 6.34899C11.2191 6.4398 11.1236 6.5118 11.0156 6.55925C10.9076 6.60671 10.79 6.62831 10.6722 6.62234C7.56547 6.46423 4.62843 5.157 2.43161 2.95459C2.38888 3.17346 2.36755 3.39597 2.36791 3.61897V3.62099C2.36677 4.17793 2.50337 4.7265 2.76555 5.21787C3.02773 5.70923 3.40735 6.12814 3.8706 6.43729C4.00664 6.52885 4.10934 6.66203 4.16331 6.81688C4.21727 6.97172 4.2196 7.13989 4.16993 7.29617C4.12027 7.45245 4.02129 7.58843 3.88784 7.68371C3.75438 7.779 3.59364 7.82847 3.4297 7.8247C3.12461 7.81508 2.82101 7.77785 2.52263 7.71347" fill="#C8EB00"/>
</svg>
